<?xml version="1.0" encoding="UTF-8"?>
<svg xmlns="http://www.w3.org/2000/svg" viewBox="0 0 2840.92 549.02" role="img" aria-label="Choosify">
  <defs>
    <style>
      .cls-1 { fill: #fff; }
      .cls-2 {
        fill: #fff;
        font-family: system-ui, -apple-system, 'Segoe UI', sans-serif;
        font-size: 58.32px;
        font-weight: 600;
      }
      .cls-3 { fill: #ef3c23; }
    </style>
  </defs>
  <g>
    <path class="cls-1" d="M1188.14,283.51c0-59.89,40.79-105.56,103.31-105.56,53.16,0,86.12,30.32,93.2,73.73h-56.88c-4.11-18.34-16.09-29.95-35.55-29.95-29.59,0-44.55,24.33-44.55,61.77s14.96,61.01,44.55,61.01c21.69,0,34.8-13.09,37.42-35.94h56.53c-1.88,45.29-37.81,80.48-93.2,80.48-63.65,0-104.83-46.04-104.83-105.56Z"/>
    <path class="cls-1" d="M1472.39,382.7h-58.79V104.2h58.79v76.74c0,1.86,0,17.97-.39,31.06h1.13c11.98-21.33,32.18-34.06,59.89-34.06,43.77,0,69.25,29.18,69.25,73.73v131.02h-58.4v-119.78c0-21.71-11.59-36.31-33.31-36.31-22.82,0-38.17,18.34-38.17,43.8v112.29Z"/>
    <path class="cls-1" d="M1630.49,283.51c0-59.89,41.92-105.56,105.57-105.56s104.79,45.66,104.79,105.56-41.53,105.56-104.79,105.56-105.57-46.04-105.57-105.56ZM1781.35,283.51c0-37.81-16.48-63.63-45.68-63.63s-45.65,25.82-45.65,63.63,15.7,62.89,45.65,62.89,45.68-25.46,45.68-62.89Z"/>
    <path class="cls-1" d="M1861.23,283.51c0-59.89,41.92-105.56,105.57-105.56s104.79,45.66,104.79,105.56-41.53,105.56-104.79,105.56-105.57-46.04-105.57-105.56ZM2012.09,283.51c0-37.81-16.48-63.63-45.68-63.63s-45.65,25.82-45.65,63.63,15.7,62.89,45.65,62.89,45.68-25.46,45.68-62.89Z"/>
    <path class="cls-1" d="M2088.57,321.3h55.39c3.37,18.73,17.61,29.2,40.44,29.2,20.98,0,32.96-8.61,32.96-22.82,0-17.97-23.6-20.22-51.28-25.46-35.58-6.73-71.52-15.72-71.52-62.14,0-40.79,37.07-62.12,83.85-62.12,55.39,0,83.1,23.96,88.35,58.76h-54.65c-3.76-14.21-14.99-21.33-33.7-21.33s-29.56,7.5-29.56,20.22c0,14.97,21.69,17.22,49.01,22.08,35.58,6.36,76.02,15.72,76.02,65.88,0,43.06-38.2,65.51-89.84,65.51-57.66,0-92.46-27.7-95.47-67.76Z"/>
    <rect class="cls-1" x="2303.19" y="183.55" width="58.79" height="199.15"/>
    <path class="cls-1" d="M2477.73,221.73v160.96h-58.79v-160.96h-29.95v-38.19h29.95v-16.83c0-21.33,5.24-36.31,16.87-46.8,13.08-11.61,33.67-16.09,59.11-15.72,7.87,0,16.12.37,24.35,1.49v41.92c-29.56-1.12-41.53.76-41.53,23.21v12.72h41.53v38.19h-41.53Z"/>
    <path class="cls-1" d="M2560.51,448.58v-46.04h3.01c.74.37,17.58.37,19.1.37,18.32,0,27.32-6.73,28.42-20.22,0-6.73-3.37-22.08-10.45-40.05l-61.77-159.1h61.77l25.45,76.37c8.97,26.95,16.48,69.25,16.48,69.25h.74s8.97-42.67,17.58-69.25l24.35-76.37h58.4l-71.13,204.02c-16.12,46.04-34.45,61.75-72.61,61.75-1.88,0-38.2-.37-39.34-.74Z"/>
    <path class="cls-3" d="M2332.78,163.36c17.57,0,31.81-14.26,31.81-31.83,0-17.57-14.24-31.83-31.81-31.83-17.57,0-31.83,14.26-31.83,31.83,0,3.05.43,5.99,1.22,8.78,2-1.22,4.37-1.94,6.89-1.94,7.33,0,13.26,5.93,13.26,13.24,0,3.32-1.22,6.35-3.22,8.66,4.14,1.98,8.78,3.09,13.68,3.09Z"/>
  </g>
  <g>
    <text class="cls-2" transform="translate(2775.2195 365.0575)"><tspan x="0" y="0">R</tspan></text>
    <path class="cls-1" d="M2794.2,391.87c-12.48,0-24.21-4.86-33.03-13.68-8.82-8.82-13.68-20.56-13.68-33.03s4.86-24.21,13.68-33.03c8.82-8.82,20.56-13.68,33.03-13.68s24.21,4.86,33.03,13.68c8.82,8.82,13.68,20.56,13.68,33.03s-4.86,24.21-13.68,33.03c-8.82,8.82-20.56,13.68-33.03,13.68ZM2794.2,308.01c-20.48,0-37.15,16.66-37.15,37.15s16.66,37.15,37.15,37.15,37.15-16.66,37.15-37.15-16.66-37.15-37.15-37.15Z"/>
  </g>
  <g>
    <path class="cls-3" d="M1001.2,329.25c0-51.43-41.73-93.11-93.16-93.11s-93.17,41.67-93.17,93.11,41.73,93.17,93.17,93.17c8.93,0,17.53-1.27,25.69-3.58-3.58-5.84-5.68-12.79-5.68-20.18,0-21.44,17.37-38.81,38.75-38.81,9.7,0,18.58,3.58,25.36,9.43,5.79-12.13,9.04-25.69,9.04-40.02Z"/>
    <path class="cls-3" d="M386.89,329.25c0-51.43-41.73-93.11-93.16-93.11s-93.17,41.67-93.17,93.11c0,51.43,41.73,93.17,93.17,93.17,8.93,0,17.53-1.27,25.69-3.58-3.58-5.84-5.68-12.79-5.68-20.18,0-21.44,17.37-38.81,38.75-38.81,9.7,0,18.58,3.58,25.36,9.43,5.79-12.13,9.04-25.69,9.04-40.02Z"/>
    <path class="cls-3" d="M274.51,549.02c-37.05,0-73-7.26-106.86-21.58-32.69-13.83-62.05-33.62-87.25-58.82-25.2-25.2-44.99-54.56-58.82-87.25C7.26,347.51,0,311.55,0,274.51s7.26-73,21.58-106.86c13.83-32.69,33.62-62.05,58.82-87.25,25.2-25.2,54.56-44.99,87.25-58.82C201.51,7.26,237.46,0,274.51,0s73,7.26,106.86,21.58c32.69,13.83,62.05,33.62,87.25,58.82,25.2,25.2,44.99,54.56,58.82,87.25,14.32,33.86,21.58,69.81,21.58,106.86s-7.26,73-21.58,106.86c-13.83,32.69-33.62,62.05-58.82,87.25-25.2,25.2-54.56,44.99-87.25,58.82-33.86,14.32-69.81,21.58-106.86,21.58ZM274.51,57.69c-119.55,0-216.82,97.27-216.82,216.82s97.26,216.82,216.82,216.82,216.82-97.27,216.82-216.82S394.06,57.69,274.51,57.69Z"/>
    <path class="cls-3" d="M846.43,549.02c-37.05,0-73-7.26-106.86-21.58-32.69-13.83-62.05-33.62-87.25-58.82-25.2-25.2-44.99-54.56-58.82-87.25-14.32-33.86-21.58-69.81-21.58-106.86s7.26-73,21.58-106.86c13.83-32.69,33.62-62.05,58.82-87.25,25.2-25.2,54.56-44.99,87.25-58.82C773.43,7.26,809.38,0,846.43,0s73,7.26,106.86,21.58c32.69,13.83,62.05,33.62,87.25,58.82,25.2,25.2,44.99,54.56,58.82,87.25,14.32,33.86,21.58,69.81,21.58,106.86s-7.26,73-21.58,106.86c-13.83,32.69-33.62,62.05-58.82,87.25-25.2,25.2-54.56,44.99-87.25,58.82-33.86,14.32-69.81,21.58-106.86,21.58ZM846.43,57.69c-119.55,0-216.82,97.27-216.82,216.82s97.26,216.82,216.82,216.82,216.82-97.27,216.82-216.82-97.26-216.82-216.82-216.82Z"/>
  </g>
</svg>
