<svg id="Layer_1" data-name="Layer 1" xmlns="http://www.w3.org/2000/svg" viewBox="467.15 0 1665.68 815.83">
  <g fill="currentColor">
    <path d="M1954.92,489.26c0-76.43-62.01-138.36-138.44-138.36s-138.44,61.93-138.44,138.36,62.01,138.44,138.44,138.44c13.27,0,26.05-1.89,38.17-5.33-5.32-8.68-8.44-19-8.44-29.98,0-31.86,25.81-57.67,57.59-57.67,14.42,0,27.61,5.33,37.68,14.01,8.6-18.02,13.43-38.17,13.43-59.47Z"/>
    <path d="M1042.07,489.26c0-76.43-62.01-138.36-138.44-138.36s-138.44,61.93-138.44,138.36,62.01,138.44,138.44,138.44c13.27,0,26.05-1.89,38.17-5.33-5.32-8.68-8.44-19-8.44-29.98,0-31.86,25.81-57.67,57.59-57.67,14.42,0,27.61,5.33,37.68,14.01,8.6-18.02,13.43-38.17,13.43-59.47Z"/>
    <path d="M875.08,815.83c-224.92,0-407.91-182.99-407.91-407.91S650.15,0,875.08,0s407.91,182.99,407.91,407.91-182.99,407.91-407.91,407.91ZM875.08,93.21c-173.53,0-314.71,141.18-314.71,314.71s141.18,314.71,314.71,314.71,314.71-141.18,314.71-314.71-141.18-314.71-314.71-314.71Z"/>
    <path d="M1724.94,815.83c-224.92,0-407.91-182.99-407.91-407.91S1500.01,0,1724.94,0s407.91,182.99,407.91,407.91-182.99,407.91-407.91,407.91ZM1724.94,93.21c-173.53,0-314.71,141.18-314.71,314.71s141.18,314.71,314.71,314.71,314.71-141.18,314.71-314.71-141.18-314.71-314.71-314.71Z"/>
  </g>
</svg>